<svg xmlns="http://www.w3.org/2000/svg" width="826" height="344" viewBox="0 0 826 344" font-family="ui-monospace,'SF Mono','DejaVu Sans Mono',Menlo,Consolas,monospace" font-size="14">
<style>
text{white-space:pre}
.b0{fill:#303030}
.s0{opacity:.6}
.s1{fill:#8abeb7}
.s2{fill:#81a2be}
.s3{fill:#b294bb}
.s4{font-weight:bold}
.s5{fill:#8abeb7;font-weight:bold}
.s6{fill:#81a2be;text-decoration:underline}
.s7{fill:#b5bd68}
.s8{fill:#969896}
</style>
<rect x="0" y="0" width="826" height="344" rx="8" fill="#1d1f21"/>
<rect class="b0" x="10.0" y="46.0" width="277.7" height="18.0"/>
<rect class="b0" x="304.0" y="46.0" width="17.3" height="18.0"/>
<rect class="b0" x="329.2" y="46.0" width="479.3" height="18.0"/>
<g fill="#c5c8c6">
<text y="23.5"><tspan x="10.0" class="s0"> 🦬</tspan><tspan x="35.2" class="s0"> Hairy (2)</tspan><tspan x="136.0" class="s0"> 🪒</tspan><tspan x="161.2" class="s0"> Shaving (3)</tspan><tspan x="278.8" class="s0"> 🐑</tspan><tspan x="304.0" class="s0"> Shorn (1)</tspan><tspan x="404.8" class="s0"> 🕒</tspan><tspan x="430.0" class="s0"> Recent (6)</tspan><tspan x="539.2" class="s0"> ⭐</tspan><tspan x="564.4" class="s0"> Starred (0)</tspan></text>
<text y="59.5"><tspan x="18.4">yaks-b517 p2 feature</tspan><tspan x="203.2" class="s0">[cli, ui</tspan><tspan x="287.2" class="s1">│</tspan><tspan x="312.4">🪒</tspan><tspan x="337.6" class="s2">yaks-b517</tspan><tspan x="430.0" class="s1">feature</tspan><tspan x="505.6" class="s3">p2</tspan><tspan x="539.2" class="s4">HITL: needs-human frontmatter +</tspan></text>
<text y="77.5"><tspan x="287.2" class="s1">│</tspan><tspan x="304.0" class="s5">Blocks:</tspan></text>
<text y="95.5"><tspan x="287.2" class="s1">│</tspan><tspan x="320.8">🦬</tspan><tspan x="346.0" class="s6">yaks-70e5</tspan><tspan x="438.4">yaks diff &lt;refA&gt; &lt;refB&gt;: ref-generic herd</tspan></text>
<text y="113.5"><tspan x="287.2" class="s1">│</tspan><tspan x="304.0">diff</tspan></text>
<text y="131.5"><tspan x="287.2" class="s1">│</tspan></text>
<text y="149.5"><tspan x="287.2" class="s1">│</tspan><tspan x="304.0" class="s5">Parent:</tspan></text>
<text y="167.5"><tspan x="287.2" class="s1">│</tspan><tspan x="320.8">🪒</tspan><tspan x="346.0" class="s6">yaks-3901</tspan><tspan x="438.4">Coordination substrate for parallel</tspan></text>
<text y="185.5"><tspan x="287.2" class="s1">│</tspan><tspan x="304.0">yak-shaving</tspan></text>
<text y="203.5"><tspan x="287.2" class="s1">│</tspan></text>
<text y="221.5"><tspan x="287.2" class="s1">│</tspan><tspan x="304.0">Add a</tspan><tspan x="354.4" class="s7">`needs:`</tspan><tspan x="430.0">block agents raise via</tspan><tspan x="623.2" class="s7">`ask`</tspan><tspan x="673.6">and a human</tspan></text>
<text y="239.5"><tspan x="287.2" class="s1">│</tspan><tspan x="304.0">clears via</tspan><tspan x="396.4" class="s7">`answer`</tspan><tspan x="463.6">; surface blocked yaks in an Inbox view.</tspan></text>
<text y="257.5"><tspan x="287.2" class="s1">│</tspan></text>
<text y="275.5"><tspan x="287.2" class="s1">│</tspan><tspan x="304.0">---</tspan></text>
<text y="293.5"><tspan x="287.2" class="s1">│</tspan><tspan x="304.0">▸ 2026-09-06T11:40:00Z [wtA]</tspan></text>
<text y="311.5"><tspan x="287.2" class="s1">│</tspan><tspan x="304.0">Proposal drafted — see the drawer</tspan><tspan x="589.6" class="s7">`inbox`</tspan><tspan x="656.8">chip. Which glyph</tspan></text>
<text y="329.5"><tspan x="10.0" class="s8">h:list  j/k:move  Tab:link  Enter:follow  i/o:fwd/back  E:edit  D:dep  S:state  f:filter  /:sear</tspan></text>
</g>
</svg>
