<svg xmlns="http://www.w3.org/2000/svg" width="776" height="308" viewBox="0 0 776 308" font-family="ui-monospace,'SF Mono','DejaVu Sans Mono',Menlo,Consolas,monospace" font-size="14">
<style>
text{white-space:pre}
.b0{fill:#eaeaea}
.b1{fill:#303030}
.b2{fill:#3a3a3a}
.s0{fill:#1d1f21;font-weight:bold}
.s1{opacity:.6}
.s2{fill:#8abeb7}
.s3{fill:#8abeb7;font-weight:bold}
.s4{fill:#969896}
</style>
<rect x="0" y="0" width="776" height="308" rx="8" fill="#1d1f21"/>
<rect class="b0" x="10.0" y="10.0" width="17.3" height="18.0"/>
<rect class="b0" x="35.2" y="10.0" width="92.9" height="18.0"/>
<rect class="b1" x="10.0" y="46.0" width="193.7" height="18.0"/>
<rect class="b1" x="211.6" y="46.0" width="59.3" height="18.0"/>
<rect class="b2" x="287.2" y="46.0" width="118.1" height="18.0"/>
<g fill="#c5c8c6">
<text y="23.5"><tspan x="10.0" class="s0"> 🦬</tspan><tspan x="35.2" class="s0"> Hairy (1)</tspan><tspan x="136.0" class="s1"> 🪒</tspan><tspan x="161.2" class="s1"> Shaving (0)</tspan><tspan x="278.8" class="s1"> 🐑</tspan><tspan x="304.0" class="s1"> Shorn (0)</tspan><tspan x="404.8" class="s1"> 🕒</tspan><tspan x="430.0" class="s1"> Recent (1)</tspan><tspan x="539.2" class="s1"> ⭐</tspan><tspan x="564.4" class="s1"> Starred (0)</tspan></text>
<text y="59.5"><tspan x="18.4">jev-d6be p2 task     🦬</tspan><tspan x="220.0">E1: J</tspan><tspan x="270.4" class="s2">│</tspan><tspan x="287.2" class="s3">Task: jev-d6be</tspan></text>
<text y="77.5"><tspan x="270.4" class="s2">│</tspan></text>
<text y="95.5"><tspan x="270.4" class="s2">│</tspan><tspan x="287.2" class="s4">Title:</tspan><tspan x="396.4">E1: Jev-as-grouper probe — per-candidate</tspan></text>
<text y="113.5"><tspan x="270.4" class="s2">│</tspan><tspan x="287.2" class="s4">role Choice (</tspan><tspan x="396.4">composition) — evaluate on Burrito. Drops</tspan></text>
<text y="131.5"><tspan x="270.4" class="s2">│</tspan><tspan x="287.2" class="s4">standalone St</tspan><tspan x="396.4">age-A kind; Gemini deferred.</tspan></text>
<text y="149.5"><tspan x="270.4" class="s2">│</tspan><tspan x="287.2" class="s4">Status:</tspan><tspan x="396.4">hairy</tspan></text>
<text y="167.5"><tspan x="270.4" class="s2">│</tspan><tspan x="287.2" class="s4">Type:</tspan><tspan x="396.4">task</tspan></text>
<text y="185.5"><tspan x="270.4" class="s2">│</tspan><tspan x="287.2" class="s4">Priority:</tspan><tspan x="396.4">p2</tspan></text>
<text y="203.5"><tspan x="270.4" class="s2">│</tspan><tspan x="287.2" class="s4">Created:</tspan><tspan x="396.4">-</tspan></text>
<text y="221.5"><tspan x="270.4" class="s2">│</tspan><tspan x="287.2" class="s4">Updated:</tspan><tspan x="396.4">-</tspan></text>
<text y="239.5"><tspan x="270.4" class="s2">│</tspan><tspan x="287.2" class="s4">Labels:</tspan><tspan x="396.4">-</tspan></text>
<text y="257.5"><tspan x="270.4" class="s2">│</tspan></text>
<text y="275.5"><tspan x="270.4" class="s2">│</tspan></text>
<text y="293.5"><tspan x="10.0" class="s4">h:list  j/k:move  Tab:link  Enter:follow  i/o:fwd/back  E:edit  D:dep  S:state  f:filter</tspan></text>
</g>
</svg>
