<svg xmlns="http://www.w3.org/2000/svg" width="826" height="380" viewBox="0 0 826 380" font-family="ui-monospace,'SF Mono','DejaVu Sans Mono',Menlo,Consolas,monospace" font-size="14">
<rect x="0" y="0" width="826" height="380" rx="8" fill="#1d1f21"/>
<rect x="136.0" y="10.0" width="8.9" height="18.0" fill="#eaeaea"/>
<rect x="144.4" y="10.0" width="8.9" height="18.0" fill="#eaeaea"/>
<rect x="161.2" y="10.0" width="8.9" height="18.0" fill="#eaeaea"/>
<rect x="169.6" y="10.0" width="8.9" height="18.0" fill="#eaeaea"/>
<rect x="178.0" y="10.0" width="8.9" height="18.0" fill="#eaeaea"/>
<rect x="186.4" y="10.0" width="8.9" height="18.0" fill="#eaeaea"/>
<rect x="194.8" y="10.0" width="8.9" height="18.0" fill="#eaeaea"/>
<rect x="203.2" y="10.0" width="8.9" height="18.0" fill="#eaeaea"/>
<rect x="211.6" y="10.0" width="8.9" height="18.0" fill="#eaeaea"/>
<rect x="220.0" y="10.0" width="8.9" height="18.0" fill="#eaeaea"/>
<rect x="228.4" y="10.0" width="8.9" height="18.0" fill="#eaeaea"/>
<rect x="236.8" y="10.0" width="8.9" height="18.0" fill="#eaeaea"/>
<rect x="245.2" y="10.0" width="8.9" height="18.0" fill="#eaeaea"/>
<rect x="253.6" y="10.0" width="8.9" height="18.0" fill="#eaeaea"/>
<rect x="262.0" y="10.0" width="8.9" height="18.0" fill="#eaeaea"/>
<rect x="10.0" y="46.0" width="8.9" height="18.0" fill="#3a3a3a"/>
<rect x="18.4" y="46.0" width="8.9" height="18.0" fill="#3a3a3a"/>
<rect x="26.8" y="46.0" width="8.9" height="18.0" fill="#3a3a3a"/>
<rect x="35.2" y="46.0" width="8.9" height="18.0" fill="#3a3a3a"/>
<rect x="43.6" y="46.0" width="8.9" height="18.0" fill="#3a3a3a"/>
<rect x="52.0" y="46.0" width="8.9" height="18.0" fill="#3a3a3a"/>
<rect x="60.4" y="46.0" width="8.9" height="18.0" fill="#3a3a3a"/>
<rect x="68.8" y="46.0" width="8.9" height="18.0" fill="#3a3a3a"/>
<rect x="77.2" y="46.0" width="8.9" height="18.0" fill="#3a3a3a"/>
<rect x="85.6" y="46.0" width="8.9" height="18.0" fill="#3a3a3a"/>
<rect x="94.0" y="46.0" width="8.9" height="18.0" fill="#3a3a3a"/>
<rect x="102.4" y="46.0" width="8.9" height="18.0" fill="#3a3a3a"/>
<rect x="110.8" y="46.0" width="8.9" height="18.0" fill="#3a3a3a"/>
<rect x="119.2" y="46.0" width="8.9" height="18.0" fill="#3a3a3a"/>
<rect x="127.6" y="46.0" width="8.9" height="18.0" fill="#3a3a3a"/>
<rect x="136.0" y="46.0" width="8.9" height="18.0" fill="#3a3a3a"/>
<rect x="144.4" y="46.0" width="8.9" height="18.0" fill="#3a3a3a"/>
<rect x="152.8" y="46.0" width="8.9" height="18.0" fill="#3a3a3a"/>
<rect x="161.2" y="46.0" width="8.9" height="18.0" fill="#3a3a3a"/>
<rect x="169.6" y="46.0" width="8.9" height="18.0" fill="#3a3a3a"/>
<rect x="178.0" y="46.0" width="8.9" height="18.0" fill="#3a3a3a"/>
<rect x="186.4" y="46.0" width="8.9" height="18.0" fill="#3a3a3a"/>
<rect x="194.8" y="46.0" width="8.9" height="18.0" fill="#3a3a3a"/>
<rect x="203.2" y="46.0" width="8.9" height="18.0" fill="#3a3a3a"/>
<rect x="211.6" y="46.0" width="8.9" height="18.0" fill="#3a3a3a"/>
<rect x="220.0" y="46.0" width="8.9" height="18.0" fill="#3a3a3a"/>
<rect x="236.8" y="46.0" width="8.9" height="18.0" fill="#3a3a3a"/>
<rect x="245.2" y="46.0" width="8.9" height="18.0" fill="#3a3a3a"/>
<rect x="253.6" y="46.0" width="8.9" height="18.0" fill="#3a3a3a"/>
<rect x="262.0" y="46.0" width="8.9" height="18.0" fill="#3a3a3a"/>
<rect x="270.4" y="46.0" width="8.9" height="18.0" fill="#3a3a3a"/>
<rect x="278.8" y="46.0" width="8.9" height="18.0" fill="#3a3a3a"/>
<rect x="287.2" y="46.0" width="8.9" height="18.0" fill="#3a3a3a"/>
<rect x="295.6" y="46.0" width="8.9" height="18.0" fill="#3a3a3a"/>
<rect x="304.0" y="46.0" width="8.9" height="18.0" fill="#3a3a3a"/>
<rect x="312.4" y="46.0" width="8.9" height="18.0" fill="#3a3a3a"/>
<rect x="320.8" y="46.0" width="8.9" height="18.0" fill="#3a3a3a"/>
<rect x="329.2" y="46.0" width="8.9" height="18.0" fill="#3a3a3a"/>
<rect x="337.6" y="46.0" width="8.9" height="18.0" fill="#3a3a3a"/>
<rect x="346.0" y="46.0" width="8.9" height="18.0" fill="#3a3a3a"/>
<rect x="354.4" y="46.0" width="8.9" height="18.0" fill="#3a3a3a"/>
<rect x="362.8" y="46.0" width="8.9" height="18.0" fill="#3a3a3a"/>
<rect x="371.2" y="46.0" width="8.9" height="18.0" fill="#3a3a3a"/>
<rect x="379.6" y="46.0" width="8.9" height="18.0" fill="#3a3a3a"/>
<rect x="388.0" y="46.0" width="8.9" height="18.0" fill="#3a3a3a"/>
<rect x="396.4" y="46.0" width="8.9" height="18.0" fill="#3a3a3a"/>
<rect x="404.8" y="46.0" width="8.9" height="18.0" fill="#3a3a3a"/>
<rect x="413.2" y="46.0" width="8.9" height="18.0" fill="#3a3a3a"/>
<rect x="421.6" y="46.0" width="8.9" height="18.0" fill="#3a3a3a"/>
<rect x="430.0" y="46.0" width="8.9" height="18.0" fill="#3a3a3a"/>
<rect x="438.4" y="46.0" width="8.9" height="18.0" fill="#3a3a3a"/>
<rect x="446.8" y="46.0" width="8.9" height="18.0" fill="#3a3a3a"/>
<rect x="455.2" y="46.0" width="8.9" height="18.0" fill="#3a3a3a"/>
<rect x="463.6" y="46.0" width="8.9" height="18.0" fill="#3a3a3a"/>
<rect x="472.0" y="46.0" width="8.9" height="18.0" fill="#3a3a3a"/>
<rect x="480.4" y="46.0" width="8.9" height="18.0" fill="#3a3a3a"/>
<rect x="488.8" y="46.0" width="8.9" height="18.0" fill="#3a3a3a"/>
<rect x="497.2" y="46.0" width="8.9" height="18.0" fill="#3a3a3a"/>
<rect x="505.6" y="46.0" width="8.9" height="18.0" fill="#3a3a3a"/>
<rect x="514.0" y="46.0" width="8.9" height="18.0" fill="#3a3a3a"/>
<rect x="522.4" y="46.0" width="8.9" height="18.0" fill="#3a3a3a"/>
<rect x="530.8" y="46.0" width="8.9" height="18.0" fill="#3a3a3a"/>
<rect x="539.2" y="46.0" width="8.9" height="18.0" fill="#3a3a3a"/>
<rect x="547.6" y="46.0" width="8.9" height="18.0" fill="#3a3a3a"/>
<rect x="556.0" y="46.0" width="8.9" height="18.0" fill="#3a3a3a"/>
<rect x="564.4" y="46.0" width="8.9" height="18.0" fill="#3a3a3a"/>
<rect x="572.8" y="46.0" width="8.9" height="18.0" fill="#3a3a3a"/>
<rect x="581.2" y="46.0" width="8.9" height="18.0" fill="#3a3a3a"/>
<rect x="589.6" y="46.0" width="8.9" height="18.0" fill="#3a3a3a"/>
<rect x="598.0" y="46.0" width="8.9" height="18.0" fill="#3a3a3a"/>
<rect x="606.4" y="46.0" width="8.9" height="18.0" fill="#3a3a3a"/>
<rect x="614.8" y="46.0" width="8.9" height="18.0" fill="#3a3a3a"/>
<rect x="623.2" y="46.0" width="8.9" height="18.0" fill="#3a3a3a"/>
<rect x="631.6" y="46.0" width="8.9" height="18.0" fill="#3a3a3a"/>
<rect x="640.0" y="46.0" width="8.9" height="18.0" fill="#3a3a3a"/>
<rect x="648.4" y="46.0" width="8.9" height="18.0" fill="#3a3a3a"/>
<rect x="656.8" y="46.0" width="8.9" height="18.0" fill="#3a3a3a"/>
<rect x="665.2" y="46.0" width="8.9" height="18.0" fill="#3a3a3a"/>
<rect x="673.6" y="46.0" width="8.9" height="18.0" fill="#3a3a3a"/>
<rect x="682.0" y="46.0" width="8.9" height="18.0" fill="#3a3a3a"/>
<rect x="690.4" y="46.0" width="8.9" height="18.0" fill="#3a3a3a"/>
<rect x="698.8" y="46.0" width="8.9" height="18.0" fill="#3a3a3a"/>
<rect x="707.2" y="46.0" width="8.9" height="18.0" fill="#3a3a3a"/>
<rect x="715.6" y="46.0" width="8.9" height="18.0" fill="#3a3a3a"/>
<rect x="724.0" y="46.0" width="8.9" height="18.0" fill="#3a3a3a"/>
<rect x="732.4" y="46.0" width="8.9" height="18.0" fill="#3a3a3a"/>
<rect x="740.8" y="46.0" width="8.9" height="18.0" fill="#3a3a3a"/>
<rect x="749.2" y="46.0" width="8.9" height="18.0" fill="#3a3a3a"/>
<rect x="757.6" y="46.0" width="8.9" height="18.0" fill="#3a3a3a"/>
<rect x="766.0" y="46.0" width="8.9" height="18.0" fill="#3a3a3a"/>
<rect x="774.4" y="46.0" width="8.9" height="18.0" fill="#3a3a3a"/>
<rect x="782.8" y="46.0" width="8.9" height="18.0" fill="#3a3a3a"/>
<rect x="791.2" y="46.0" width="8.9" height="18.0" fill="#3a3a3a"/>
<rect x="799.6" y="46.0" width="8.9" height="18.0" fill="#3a3a3a"/>
<rect x="808.0" y="46.0" width="8.9" height="18.0" fill="#3a3a3a"/>
<text x="10.0" y="23.5" fill="#c5c8c6" textLength="16.8" lengthAdjust="spacingAndGlyphs" xml:space="preserve" opacity="0.6"> 🦬</text>
<text x="35.2" y="23.5" fill="#c5c8c6" textLength="84.0" lengthAdjust="spacingAndGlyphs" xml:space="preserve" opacity="0.6"> Hairy (2)</text>
<text x="136.0" y="23.5" fill="#1d1f21" textLength="16.8" lengthAdjust="spacingAndGlyphs" xml:space="preserve" font-weight="bold"> 🪒</text>
<text x="161.2" y="23.5" fill="#1d1f21" textLength="100.8" lengthAdjust="spacingAndGlyphs" xml:space="preserve" font-weight="bold"> Shaving (3)</text>
<text x="278.8" y="23.5" fill="#c5c8c6" textLength="16.8" lengthAdjust="spacingAndGlyphs" xml:space="preserve" opacity="0.6"> 🐑</text>
<text x="304.0" y="23.5" fill="#c5c8c6" textLength="84.0" lengthAdjust="spacingAndGlyphs" xml:space="preserve" opacity="0.6"> Shorn (1)</text>
<text x="404.8" y="23.5" fill="#c5c8c6" textLength="16.8" lengthAdjust="spacingAndGlyphs" xml:space="preserve" opacity="0.6"> 🕒</text>
<text x="430.0" y="23.5" fill="#c5c8c6" textLength="92.4" lengthAdjust="spacingAndGlyphs" xml:space="preserve" opacity="0.6"> Recent (6)</text>
<text x="539.2" y="23.5" fill="#c5c8c6" textLength="16.8" lengthAdjust="spacingAndGlyphs" xml:space="preserve" opacity="0.6"> ⭐</text>
<text x="564.4" y="23.5" fill="#c5c8c6" textLength="100.8" lengthAdjust="spacingAndGlyphs" xml:space="preserve" opacity="0.6"> Starred (0)</text>
<text x="18.4" y="59.5" fill="#c5c8c6" textLength="75.6" lengthAdjust="spacingAndGlyphs" xml:space="preserve">yaks-3901</text>
<text x="119.2" y="59.5" fill="#c5c8c6" textLength="16.8" lengthAdjust="spacingAndGlyphs" xml:space="preserve" font-weight="bold">p1</text>
<text x="144.4" y="59.5" fill="#c5c8c6" textLength="495.6" lengthAdjust="spacingAndGlyphs" xml:space="preserve">task     🪒  Coordination substrate for parallel yak-shaving</text>
<text x="715.6" y="59.5" fill="#c5c8c6" textLength="100.8" lengthAdjust="spacingAndGlyphs" xml:space="preserve" opacity="0.6">[coord, git]</text>
<text x="35.2" y="77.5" fill="#81a2be" textLength="75.6" lengthAdjust="spacingAndGlyphs" xml:space="preserve">yaks-b517</text>
<text x="119.2" y="77.5" fill="#b294bb" textLength="16.8" lengthAdjust="spacingAndGlyphs" xml:space="preserve">p2</text>
<text x="144.4" y="77.5" fill="#8abeb7" textLength="58.8" lengthAdjust="spacingAndGlyphs" xml:space="preserve">feature</text>
<text x="220.0" y="77.5" fill="#c5c8c6" textLength="420.0" lengthAdjust="spacingAndGlyphs" xml:space="preserve">🪒  HITL: needs-human frontmatter + inbox surfacing</text>
<text x="715.6" y="77.5" fill="#b294bb" textLength="75.6" lengthAdjust="spacingAndGlyphs" xml:space="preserve" opacity="0.6">[cli, ui]</text>
<text x="799.6" y="77.5" fill="#f0c674" textLength="8.4" lengthAdjust="spacingAndGlyphs" xml:space="preserve" font-weight="bold">⏳</text>
<text x="35.2" y="95.5" fill="#81a2be" textLength="75.6" lengthAdjust="spacingAndGlyphs" xml:space="preserve">yaks-3677</text>
<text x="119.2" y="95.5" fill="#f0c674" textLength="16.8" lengthAdjust="spacingAndGlyphs" xml:space="preserve">p3</text>
<text x="144.4" y="95.5" fill="#8abeb7" textLength="58.8" lengthAdjust="spacingAndGlyphs" xml:space="preserve">feature</text>
<text x="220.0" y="95.5" fill="#c5c8c6" textLength="394.8" lengthAdjust="spacingAndGlyphs" xml:space="preserve">🪒  TUI doc screenshots via headless buffer-&gt;SVG</text>
<text x="732.4" y="95.5" fill="#b294bb" textLength="84.0" lengthAdjust="spacingAndGlyphs" xml:space="preserve" opacity="0.6">[ui, docs]</text>
<text x="10.0" y="113.5" fill="#b294bb" textLength="8.4" lengthAdjust="spacingAndGlyphs" xml:space="preserve" font-weight="bold">*</text>
<text x="18.4" y="113.5" fill="#81a2be" textLength="92.4" lengthAdjust="spacingAndGlyphs" xml:space="preserve" opacity="0.6">  yaks-70e5</text>
<text x="119.2" y="113.5" fill="#f0c674" textLength="16.8" lengthAdjust="spacingAndGlyphs" xml:space="preserve" opacity="0.6">p3</text>
<text x="144.4" y="113.5" fill="#8abeb7" textLength="58.8" lengthAdjust="spacingAndGlyphs" xml:space="preserve" opacity="0.6">feature</text>
<text x="220.0" y="113.5" fill="#c5c8c6" textLength="8.4" lengthAdjust="spacingAndGlyphs" xml:space="preserve" opacity="0.6">🦬</text>
<text x="236.8" y="113.5" fill="#c5c8c6" textLength="394.8" lengthAdjust="spacingAndGlyphs" xml:space="preserve" opacity="0.6"> yaks diff &lt;refA&gt; &lt;refB&gt;: ref-generic herd diff</text>
<text x="774.4" y="113.5" fill="#b294bb" textLength="42.0" lengthAdjust="spacingAndGlyphs" xml:space="preserve" opacity="0.6">[cli]</text>
<text x="10.0" y="365.5" fill="#969896" textLength="798.0" lengthAdjust="spacingAndGlyphs" xml:space="preserve">Tab:view  j/k:move  l:detail  h:herd  v:views  c/C:new  E:edit  X:del  S:state  D:dep  f:filter</text>
</svg>
